name C:/MyDriveSym/Projects/mobilecap/Data\Session20210823_0002\mocap\ForceDataProcessed\walking1_forces.mot
datacolumns 19
datarows 12
range 0.00000000 0.00550000
endheader 
time	R_ground_force_vx	R_ground_force_vy	R_ground_force_vz	R_ground_force_px	R_ground_force_py	R_ground_force_pz	R_ground_torque_x	R_ground_torque_y	R_ground_torque_z	L_ground_force_vx	L_ground_force_vy	L_ground_force_vz	L_ground_force_px	L_ground_force_py	L_ground_force_pz	L_ground_torque_x	L_ground_torque_y	L_ground_torque_z	
          0.00000000	          4.38529700	        173.14113100	          1.37891100	          0.18372000	          0.00600000	         -0.14869900	          0.00000000	         -0.08889300	          0.00000000	          0.00000000	          0.00000000	          0.00000000	          0.74202100	          0.00000000	         -0.25075500	          0.00000000	          0.00000000	          0.00000000	
          0.00050000	          4.05195900	        173.95848200	          1.33330400	          0.18372000	          0.00600000	         -0.14869900	          0.00000000	         -0.08980700	          0.00000000	          0.00000000	          0.00000000	          0.00000000	          0.74202100	          0.00000000	         -0.25075500	          0.00000000	          0.00000000	          0.00000000	
          0.00100000	          3.71656800	        174.78523500	          1.28720100	          0.18372000	          0.00600000	         -0.14869900	          0.00000000	         -0.09071900	          0.00000000	          0.00000000	          0.00000000	          0.00000000	          0.74202100	          0.00000000	         -0.25075500	          0.00000000	          0.00000000	          0.00000000	
          0.00150000	          3.37913800	        175.62142600	          1.24060100	          0.18372000	          0.00600000	         -0.14869900	          0.00000000	         -0.09162800	          0.00000000	          0.00000000	          0.00000000	          0.00000000	          0.74202100	          0.00000000	         -0.25075500	          0.00000000	          0.00000000	          0.00000000	
          0.00200000	          3.03968400	        176.46709200	          1.19350300	          0.18405500	          0.00600000	         -0.14867900	          0.00000000	         -0.09253400	          0.00000000	          0.00000000	          0.00000000	          0.00000000	          0.74202100	          0.00000000	         -0.25075500	          0.00000000	          0.00000000	          0.00000000	
          0.00250000	          2.69822400	        177.32226700	          1.14590600	          0.18439100	          0.00600000	         -0.14865800	          0.00000000	         -0.09343500	          0.00000000	          0.00000000	          0.00000000	          0.00000000	          0.74202100	          0.00000000	         -0.25075500	          0.00000000	          0.00000000	          0.00000000	
          0.00300000	          2.35477400	        178.18698400	          1.09780800	          0.18472800	          0.00600000	         -0.14863800	          0.00000000	         -0.09433100	          0.00000000	          0.00000000	          0.00000000	          0.00000000	          0.74202100	          0.00000000	         -0.25075500	          0.00000000	          0.00000000	          0.00000000	
          0.00350000	          2.00934900	        179.06127600	          1.04920700	          0.18506600	          0.00600000	         -0.14861800	          0.00000000	         -0.09522200	          0.00000000	          0.00000000	          0.00000000	          0.00000000	          0.74202100	          0.00000000	         -0.25075500	          0.00000000	          0.00000000	          0.00000000	
          0.00400000	          1.66196600	        179.94517400	          1.00010400	          0.18540400	          0.00600000	         -0.14859800	          0.00000000	         -0.09610700	          0.00000000	          0.00000000	          0.00000000	          0.00000000	          0.74202100	          0.00000000	         -0.25075500	          0.00000000	          0.00000000	          0.00000000	
          0.00450000	          1.31264200	        180.83871000	          0.95049600	          0.18574400	          0.00600000	         -0.14857800	          0.00000000	         -0.09698600	          0.00000000	          0.00000000	          0.00000000	          0.00000000	          0.74202100	          0.00000000	         -0.25075500	          0.00000000	          0.00000000	          0.00000000	
          0.00500000	          0.96139400	        181.74191200	          0.90038200	          0.18608400	          0.00600000	         -0.14855800	          0.00000000	         -0.09785700	          0.00000000	          0.00000000	          0.00000000	          0.00000000	          0.74202100	          0.00000000	         -0.25075500	          0.00000000	          0.00000000	          0.00000000	
          0.00550000	          0.60823900	        182.65480900	          0.84976200	          0.18642400	          0.00600000	         -0.14853800	          0.00000000	         -0.09872000	          0.00000000	          0.00000000	          0.00000000	          0.00000000	          0.74202100	          0.00000000	         -0.25075500	          0.00000000	          0.00000000	          0.00000000	
